# Object Export From Tinkercad Server 2015

mtllib obj.mtl

o obj_0
v 0 		0.003 		0
v -6.3127 		-18.9332 		5
v 6.3127 		-18.9332 		0
v -6.3127 		-18.9332 		0
v -5.176 		-19.319 		5
v -5.176 		-19.319 		0
v 0 		0.003 		5
v 0 		-20 		0
v 2.611 		-19.829 		0
v 5.176 		-19.319 		0
v -2.611 		-19.829 		5
v -2.611 		-19.829 		0
v 0 		-20 		5
v 2.611 		-19.829 		5
v 5.176 		-19.319 		5
v 6.3127 		-18.9332 		5
# 16 vertices

g group_0_16089887

usemtl color_16089887
s 0

f 2 	1 	4
f 6 	5 	4
f 4 	5 	2
f 9 	8 	1
f 10 	9 	1
f 1 	3 	10
f 12 	11 	6
f 6 	11 	5
f 8 	13 	12
f 12 	13 	11
f 7 	1 	2
f 13 	8 	14
f 14 	8 	9
f 1 	8 	12
f 6 	4 	1
f 1 	12 	6
f 15 	14 	10
f 10 	14 	9
f 16 	7 	15
f 15 	7 	14
f 16 	15 	3
f 3 	15 	10
f 3 	1 	7
f 7 	16 	3
f 7 	2 	5
f 5 	11 	7
f 11 	13 	7
f 13 	14 	7
# 28 faces

 #end of obj_0

